<?xml version="1.0" encoding="UTF-8"?>
<svg xmlns="http://www.w3.org/2000/svg" viewBox="0 0 566.93 566.93">
  <defs>
    <style>
      .cls-1 {
        fill: #b9d0c0;
      }

      .cls-2 {
        fill: #acc8d9;
      }

      .cls-3 {
        fill: #adc9da;
      }

      .cls-4 {
        fill: #ee984e;
      }

      .cls-5 {
        fill: #e1eff7;
      }

      .cls-6 {
        fill: #f7d6b7;
      }

      .cls-7 {
        fill: #5a8365;
      }
    </style>
  </defs>
  <g id="_图层_2" data-name="图层 2">
    <g>
      <path class="cls-4" d="m473.97,343.26c-9.45-3.79-14.37-12.07-17.76-20.56-8.05-20.14-15.9-40.45-22.16-61.19-13.88-45.98-26.21-92.44-40.31-138.35-4.38-14.26-21.69-44.66-23.2-46.42-1.22-1.41-2.5-2.76-3.76-4.13,1.94-.2,3.87-.56,5.81-.57,30.48-.04,60.96.22,91.43-.21,8.79-.12,15.29,3.13,18.92,10.34,7.51,14.92,15.08,29.94,20.8,45.59,6.29,17.22,10.52,35.2,15.67,52.84,2.18,7.46,4.42,14.91,6.63,22.36,6.19,22.62,11.93,45.37,18.81,67.81.73,2.38,1.81,4.64,2.35,7.08.25,1.12,1.63,3.86,1.59,4.66-.13,2.41-2.93,1.7-6.4,1.92-6.64.42-13.29.1-19.94.16-7.11.06-7.73.4-9.82,7.29-4.03,13.27-9.9,25.73-16.32,37.96-1.79,3.41-4.25,6.28-6.89,9.1-4.35,4.65-9.57,5.45-15.43,4.34Z"/>
      <path class="cls-2" d="m232,334.9c-12.13-16.26-17.73-35.42-23.84-54.3-5.45-16.85-10.75-33.76-15.49-50.82-4.92-17.69-8.66-35.71-13.69-53.37-5.85-20.53-12.14-40.96-19.05-61.16-3.36-9.82-8.01-19.34-13.19-28.36-3.02-5.25-8.22-9.26-12.47-13.8-.42-.45-1.05-.71-1.58-1.05.67-.32,1.33-.91,2.01-.92,4.33-.11,8.66-.13,12.99-.13,29.14,0,58.28.13,87.41-.09,8.4-.06,14.1,3.58,18.56,10.27,14.24,21.35,20.86,45.8,28.18,69.9,5.2,17.12,9.5,34.51,14.2,51.78,1.37,6.07,7.01,22.07,9.49,27.88,1.18,2.75-4.63-4.13-5.39-1.4-6.7,24.21-13.49,48.39-21.81,72.12-2.67,7.62-7.75,13.66-12.53,19.69-6.47,8.18-14.14,15.44-22.18,22.19-5.17-1.01-8.58-4.47-11.64-8.43Z"/>
      <path class="cls-1" d="m71.28,345.01c-16.99,0-34-.31-50.98.13-8.72.23-11.33-3.51-15.17-10.61-6.05-11.19-9.62-23.06-15.01-34.6-1.4-2.99-2.66-6.31-3.82-9.41-2.18-5.85-5.91-7.52.3-7.53,20.49-.03,40.99-.14,61.48.08,4.56.05,6.33-1.62,7.5-5.92,5.28-19.36,11.11-38.56,16.43-57.91,5.23-19.02,9.69-38.25,15.17-57.19,7.59-26.25,15.07-52.6,28.72-76.58,7.7-13.52,10.73-13.64,18.49-.85,12.1,19.95,18.89,42.07,25.54,64.17,5.01,16.64,16.38,59.17,18.15,63.42,5.39,12.93-.17,24.84-3.7,36.68-6.07,20.32-12.44,40.6-19.97,60.4-3.88,10.2-9.85,19.82-16.23,28.73-2.62,3.65-8.76,6.45-13.42,6.65-17.79.76-35.64.31-53.47.31v.04Z"/>
      <path class="cls-6" d="m473.97,343.26c10.78.93,16.69-6.07,20.67-14.23,6.31-12.92,11.78-26.28,16.99-39.7,1.91-4.91,6.38-7.95,11.88-7.51,7.51-.04,4.18-.06,10.69.03,5.11.07,16.67.21,21.19.17,21.15-.17,42.29.04,63.44-.17,4.53-.04,5.65,1.3,4.15,5.41-6.28,17.24-11.45,35.04-23.13,49.69-3.85,4.83-8.85,8.12-15.76,8.08-33.13-.18-66.27-.04-99.41-.17-3.57-.01-7.13-1.04-10.7-1.6Z"/>
      <path class="cls-7" d="m130.06,343.54c-10.78.93-16-6.12-19.99-14.28-6.31-12.92-11.78-26.28-16.99-39.7-1.91-4.91-6.38-7.95-11.88-7.51-7.51-.04-4.18-.06-10.69.03-5.11.07-16.67.21-21.19.17-21.15-.17-42.29.04-63.44-.17-4.53-.04-5.65,1.3-4.15,5.41,6.28,17.24,11.45,35.04,23.13,49.69,3.85,4.83,8.85,8.12,15.76,8.08,33.13-.18,66.27-.04,99.41-.17,3.57-.01,4.74.1,10.01-1.55Z"/>
    </g>
    <path class="cls-5" d="m409.5,406.95c-2.8-21.66-14.55-36.97-36.35-40.63-10.44-1.75-18.19-5.37-24.94-12.67-2.88-3.12-5.59-6.4-8.37-9.61h0c.67,0,1.33.03,2,0,8.31-.35,17.42,2.14,24.03-5.11,4.09-4.49,8.31-9.33,10.71-14.79,6.12-13.92,11.79-28.1,16.65-42.51,5.77-17.09,10.73-34.46,15.57-51.84,1.27-4.57,1.7-9.76.94-14.41-1.15-6.96-20.64-75.83-22.69-82.63-1.09-3.6-.17-.18-6.56-16.65-5.53-12.12-14.93-29.55-21.61-40.72-.57-.96-4.68-1.28-5.43-.42-3.53,4.1-7.03,8.43-9.5,13.21-4.17,8.08-8.13,16.35-11.17,24.91-5.91,16.66-11.48,33.46-16.54,50.4-5.01,16.81-8.68,34.39-13.82,50.79-10.4,33.23-14.9,43.38-48.82,107.13,0,0-12.39,22.51-16.33,26.5-5.13,5.2-10.6,10.09-16.14,14.86-1.44,1.25-3.84,1.43-5.83,1.99-7.09,1.97-14.73,2.82-21.21,6.02-20.84,10.32-26.77,30.16-23.68,47.99,3.75,21.6,21.63,34.27,40.49,36.8,19.95,2.68,36.05-6.24,46.63-21.82,10.52-15.49,8.3-36.15-4.23-51.64-2.9-3.58-2.83-5.57.3-8.7,19.59-19.53,51.2-19.64,70.89-.41,3.53,3.45,3.59,5.51.6,9.23-14.76,18.33-13.11,45.48,4.67,61.22,18.04,15.97,42.81,17.29,62.58,2,12.33-9.53,19.21-22.45,17.13-38.51Zm-192.73,18.97c-9.61,0-15.77-5.95-15.8-15.23-.02-8.76,7.17-15.83,16.09-15.81,8.86.02,15.62,6.93,16.06,15.51.37,7.33-7.72,16.92-16.35,15.54Zm146.23-.04c-9.09-.03-16.03-6.95-16.05-16-.02-8.47,7.4-16.34,15.64-15.86,8.53.49,16.77,6.12,16.41,16.34.02,8.58-7.18,15.56-16.01,15.52Z"/>
  </g>
  <g id="_图层_3" data-name="图层 3">
    <ellipse class="cls-3" cx="294.23" cy="332.49" rx="9.47" ry="11.86"/>
  </g>
  <g id="_图层_4" data-name="图层 4">
    <g>
      <path class="cls-3" d="m277.71,388.96c-8.47,22.15-16.56,43.28-24.75,64.69-3.92-7.31-6.57-12.27-10.27-19.17,0-.63-1.05-3.2-1.05-3.83,2.75-3.89,6.89-6.54,9.72-10.22v-19.92c-5.06-4.99-9.83-9.68-14.55-14.33h-26.28c.08,4.49-.08,8.8.11,13.38h17.21v21.65h-17.34c.19,4.58-.24,8.89.33,13.22h7.49s0,.04,0,.06h.09c3.42,6.97,7.23,13.75,10.06,20.68h46.74c4.42-12.99,8.77-25.81,13.06-38.41-3.44-9.06-6.79-17.89-10.55-27.8Z"/>
      <path class="cls-3" d="m184.69,386.13v69.01h23.72c.73-10.05.47-65.55-.3-69.01h-23.42Z"/>
      <path class="cls-3" d="m303.37,386.03c-7.55,0-14.82,0-22.08,0-.14,0-.28.11-.4.2-.13.09-.23.21-.36.34,6.13,15.5,12.26,31,18.54,46.88h-12.49c-1.69,4.77-3.3,9.35-5.09,14.4h23.09c1.57,2.49,1.81,5.41,3.66,7.36h23.41c-9.48-23.18-18.9-46.23-28.28-69.18Z"/>
      <g>
        <path class="cls-3" d="m330.72,455.22h22.5v-69.14h-22.77c-.74,8.75-.49,65.76.27,69.14Z"/>
        <path class="cls-3" d="m382.62,386.06h-26.3c.02,4.21-.03,8.27.03,12.42,3.25,0,5.72.03,8.47.02,3.1-.01,5.27.05,8.76.9v21.15c-2.27,1.02-2.27,1.03-3.68,1.04-4.47,0-8.93,0-13.41,0v12.43h26.16c4.97-4.57,9.65-8.87,14.44-13.26v-21.39c-4.92-4.52-9.71-8.92-14.47-13.29Z"/>
      </g>
    </g>
  </g>
</svg>